<?xml version="1.0" encoding="UTF-8" standalone="no"?><!DOCTYPE svg PUBLIC "-//W3C//DTD SVG 1.1//EN" "http://www.w3.org/Graphics/SVG/1.1/DTD/svg11.dtd"><svg width="100%" height="100%" viewBox="0 0 301 74" version="1.1" xmlns="http://www.w3.org/2000/svg" xmlns:xlink="http://www.w3.org/1999/xlink" xml:space="preserve" xmlns:serif="http://www.serif.com/" style="fill-rule:evenodd;clip-rule:evenodd;stroke-linejoin:round;stroke-miterlimit:2;"><rect id="Artboard1" x="0" y="0" width="275.365" height="73.591" style="fill:none;"/><g><g><path d="M1.509,72.498l16.828,0l0,-28.787l23.059,0l0,28.787l16.64,0l0,-69.979l-16.64,0l0,26.623l-23.059,0l0,-26.623l-16.828,0l0,69.979Z" style="fill:#fff;fill-rule:nonzero;"/><path d="M74.322,72.498l45.426,0l0,-14.099l-28.599,0l0,-14.876l23.425,0l0,-14.099l-23.425,0l0,-12.994l27.564,0l0,-13.911l-44.391,0l0,69.979Z" style="fill:#fff;fill-rule:nonzero;"/><path d="M133.588,72.498l44.015,0l0,-14.099l-27.187,0l0,-55.88l-16.828,0l0,69.979Z" style="fill:#fff;fill-rule:nonzero;"/><path d="M189.75,72.498l16.828,0l0,-23.236l8.189,0c14.774,0 27.653,-7.332 27.653,-23.984c0,-17.308 -12.691,-22.759 -28.124,-22.759l-24.546,0l0,69.979Zm16.828,-36.489l0,-20.237l6.871,0c8.096,0 12.614,2.447 12.614,9.506c0,6.872 -3.954,10.731 -12.143,10.731l-7.342,0Z" style="fill:#fff;fill-rule:nonzero;"/><path d="M259.551,47.098l10.811,0l2.444,-31.797l0.564,-14.863l-16.827,0l0.564,14.863l2.444,31.797Zm5.358,26.717c5.829,0 9.966,-4.61 9.966,-10.442c0,-5.73 -4.137,-10.337 -9.966,-10.337c-5.735,0 -9.872,4.607 -9.872,10.343c0,5.826 4.137,10.436 9.872,10.436Z" style="fill:#d5d5d5;fill-rule:nonzero;"/></g></g></svg>